#N canvas 2844 532 927 543 12;
#X text 177 277 creation arguments are OSC address;
#X text 179 238 set message to change OSC address;
#X text 164 48 1 Set IP Address : network address;
#X text 164 68 2 Set Ports (sending and listening);
#X text 164 87 3 Set OSC Addresses (routing osc data;
#X text 155 26 Key Settings;
#X floatatom 43 194 5 0 0 0 - - - 0;
#N canvas 2814 494 1264 780 oscReceive 1;
#X obj 55 184 netreceive -u -b;
#X msg 78 143 listen 0;
#X text 152 143 stop listening;
#X text 64 58 packets from network;
#X text 173 177 UDP packets \, binary output, f 13;
#X obj 45 314 print;
#X obj 45 272 oscparse;
#X text 150 114 listen on port 8000;
#X obj 177 269 oscparse;
#X obj 177 293 list trim;
#X floatatom 140 380 5 0 0 0 - - - 0;
#X text 241 267 Parse the OSC message;
#X obj 177 319 route unity;
#X msg 66 115 listen 8000;
#X obj 66 84 loadbang;
#X floatatom 244 382 5 0 0 0 - - - 0;
#X floatatom 339 382 5 0 0 0 - - - 0;
#X floatatom 437 382 5 0 0 0 - - - 0;
#X obj 129 959 phasor~;
#X floatatom 122 849 5 0 0 0 - - - 0;
#X obj 144 1202 *~;
#X obj 144 1235 dac~;
#X obj 203 952 phasor~;
#X obj 203 919 * -1;
#X obj 146 1021 +~;
#X obj 146 1054 -~ 1;
#X msg 206 856 0;
#X msg 252 851 0.5;
#X obj 252 819 bng 15 250 50 0 empty empty empty 17 7 0 10 #fcfcfc #000000 #000000;
#X obj 907 723 phasor~;
#X floatatom 919 648 5 0 0 0 - - - 0;
#X obj 922 966 *~;
#X obj 922 999 dac~;
#X obj 981 716 phasor~;
#X obj 944 687 * -1;
#X obj 907 855 +~;
#X msg 1002 684 0, f 4;
#X obj 1000 661 bng 15 250 50 0 empty empty empty 17 7 0 10 #fcfcfc #000000 #000000;
#X text 913 590 Triangle;
#X obj 981 749 *~ 2;
#X obj 907 756 *~ 2;
#X obj 907 789 -~ 1;
#X obj 981 782 -~ 1;
#X obj 907 822 clip~ 0 1;
#X obj 981 815 clip~ 0 1;
#N canvas 0 50 450 300 (subpatch) 0;
#X array array_waves 2051 float 0;
#X coords 0 1 2050 -1 200 100 1 0 0;
#X restore 967 1115 graph;
#X obj 819 1192 metro 100;
#X obj 819 1160 tgl 15 0 empty empty empty 17 7 0 10 #fcfcfc #000000 #000000 0 1;
#X obj 819 1225 tabwrite~ array_waves;
#X obj 288 1114 vline~;
#X obj 1018 940 vline~;
#X obj 135 805 + 0;
#X obj 97 600 trigger b b b;
#X obj 97 564 bng 16 250 50 0 empty empty empty 0 -8 0 10 #fcfcfc #000000 #000000;
#X obj 284 728 bng 16 250 50 0 empty empty empty 0 -8 0 10 #fcfcfc #000000 #000000;
#X msg 97 772 200;
#X msg 135 772 300;
#X msg 178 772 400;
#X msg 288 1054 1 25 \, 0 100 100;
#X obj 427 904 phasor~;
#X floatatom 438 822 5 0 0 0 - - - 0;
#X obj 442 1147 *~;
#X obj 442 1180 dac~;
#X obj 501 897 phasor~;
#X obj 501 864 * -1;
#X obj 444 966 +~;
#X obj 444 999 -~ 1;
#X msg 514 803 0;
#X msg 550 796 0.5;
#X obj 550 764 bng 15 250 50 0 empty empty empty 17 7 0 10 #fcfcfc #000000 #000000;
#X obj 586 1059 vline~;
#X obj 189 639 delay 200;
#X obj 121 639 delay 100;
#X msg 579 1014 2 20 \, 0 300 50;
#X text 386 753 Squares;
#X obj 701 885 *~;
#X obj 692 930 dac~;
#X obj 765 853 vline~;
#X obj 701 821 noise~;
#X obj 809 563 bng 15 250 50 0 empty empty empty 17 7 0 10 #fcfcfc #000000 #000000;
#X obj 704 560 tgl 15 0 empty empty empty 17 7 0 10 #fcfcfc #000000 #000000 0 1;
#X obj 722 693 metro 100;
#X text 91 491 good sound / win?;
#X obj 578 580 bng 16 250 50 0 empty empty empty 0 -8 0 10 #fcfcfc #000000 #000000;
#X text 513 491 bad sound;
#X text 687 538 sprinkler;
#X text 801 492 or dig;
#X msg 765 801 0.5 0.1 \, 0 150 50;
#X obj 1059 553 bng 16 250 50 0 empty empty empty 0 -8 0 10 #fcfcfc #000000 #000000;
#X text 1051 495 jump;
#X msg 1060 902 1 4 \, 0 200 50;
#X obj 139 357 route good;
#X obj 243 359 route bad;
#X obj 338 359 route dig;
#X obj 436 359 route jump;
#X obj 140 407 s goodtrig;
#X obj 244 409 s badtrig;
#X obj 339 409 s digtrig;
#X obj 437 409 s jumptrig;
#X obj 97 522 r goodtrig;
#X obj 578 532 r badtrig;
#X obj 809 517 r digtrig;
#X obj 1059 516 r jumptrig;
#X msg 463 776 30;
#X msg 998 587 150;
#X connect 0 0 6 0;
#X connect 0 0 8 0;
#X connect 1 0 0 0;
#X connect 6 0 5 0;
#X connect 8 0 9 0;
#X connect 9 0 12 0;
#X connect 10 0 95 0;
#X connect 12 0 91 0;
#X connect 12 0 92 0;
#X connect 12 0 93 0;
#X connect 12 0 94 0;
#X connect 13 0 0 0;
#X connect 14 0 13 0;
#X connect 15 0 96 0;
#X connect 16 0 97 0;
#X connect 17 0 98 0;
#X connect 18 0 24 0;
#X connect 19 0 18 0;
#X connect 19 0 23 0;
#X connect 20 0 21 0;
#X connect 20 0 21 1;
#X connect 20 0 48 0;
#X connect 22 0 24 1;
#X connect 23 0 22 0;
#X connect 24 0 25 0;
#X connect 25 0 20 0;
#X connect 26 0 18 1;
#X connect 27 0 22 1;
#X connect 28 0 26 0;
#X connect 28 0 27 0;
#X connect 29 0 40 0;
#X connect 30 0 29 0;
#X connect 30 0 34 0;
#X connect 31 0 32 0;
#X connect 31 0 32 1;
#X connect 31 0 48 0;
#X connect 33 0 39 0;
#X connect 34 0 33 0;
#X connect 35 0 31 0;
#X connect 36 0 29 1;
#X connect 36 0 33 1;
#X connect 37 0 36 0;
#X connect 39 0 42 0;
#X connect 40 0 41 0;
#X connect 41 0 43 0;
#X connect 42 0 44 0;
#X connect 43 0 35 0;
#X connect 44 0 35 1;
#X connect 46 0 48 0;
#X connect 47 0 46 0;
#X connect 49 0 20 1;
#X connect 50 0 31 1;
#X connect 51 0 19 0;
#X connect 52 0 55 0;
#X connect 52 0 54 0;
#X connect 52 1 72 0;
#X connect 52 2 71 0;
#X connect 53 0 52 0;
#X connect 54 0 58 0;
#X connect 55 0 51 0;
#X connect 56 0 51 0;
#X connect 57 0 51 0;
#X connect 58 0 49 0;
#X connect 59 0 65 0;
#X connect 60 0 59 0;
#X connect 60 0 64 0;
#X connect 61 0 62 0;
#X connect 61 0 62 1;
#X connect 61 0 48 0;
#X connect 63 0 65 1;
#X connect 64 0 63 0;
#X connect 65 0 66 0;
#X connect 66 0 61 0;
#X connect 67 0 59 1;
#X connect 68 0 63 1;
#X connect 69 0 67 0;
#X connect 69 0 68 0;
#X connect 70 0 61 1;
#X connect 71 0 57 0;
#X connect 71 0 54 0;
#X connect 72 0 56 0;
#X connect 72 0 54 0;
#X connect 73 0 70 0;
#X connect 75 0 76 0;
#X connect 75 0 76 1;
#X connect 75 0 48 0;
#X connect 77 0 75 1;
#X connect 78 0 75 0;
#X connect 79 0 87 0;
#X connect 80 0 81 0;
#X connect 81 0 79 0;
#X connect 83 0 73 0;
#X connect 83 0 103 0;
#X connect 87 0 77 0;
#X connect 88 0 90 0;
#X connect 88 0 104 0;
#X connect 90 0 50 0;
#X connect 91 0 10 0;
#X connect 92 0 15 0;
#X connect 93 0 16 0;
#X connect 94 0 17 0;
#X connect 99 0 53 0;
#X connect 100 0 83 0;
#X connect 101 0 79 0;
#X connect 102 0 88 0;
#X connect 103 0 60 0;
#X connect 104 0 30 0;
#X restore 47 142 pd oscReceive;
#X obj 47 36 tgl 15 0 empty empty empty 17 7 0 10 #fcfcfc #000000 #000000 0 1;
#X msg 47 61 \; pd dsp \$1;
#X obj 44 278 oscformat PD message;
#X msg 76 239 set PD message;
#N canvas 727 97 450 300 oscSend 0;
#X msg 158 207 disconnect;
#X obj 61 253 netsend -u -b;
#X obj 59 55 list prepend send;
#X obj 59 80 list trim;
#X msg 150 175 connect 127.0.0.1 8001;
#X obj 59 29 r oscOut;
#X text 301 163 send to port 8001;
#X msg 147 148 connect localhost 8001;
#X obj 147 108 loadbang;
#X connect 0 0 1 0;
#X connect 2 0 3 0;
#X connect 3 0 1 0;
#X connect 4 0 1 0;
#X connect 5 0 2 0;
#X connect 7 0 1 0;
#X connect 8 0 7 0;
#X restore 47 118 pd oscSend;
#X obj 44 313 s oscOut;
#X connect 6 0 10 0;
#X connect 8 0 9 0;
#X connect 10 0 13 0;
#X connect 11 0 10 0;
